<?xml version="1.0" encoding="utf-8"?>
<!-- Generator: Adobe Illustrator 24.2.3, SVG Export Plug-In . SVG Version: 6.00 Build 0)  -->
<svg version="1.1" id="Layer_1" xmlns="http://www.w3.org/2000/svg" xmlns:xlink="http://www.w3.org/1999/xlink" x="0px" y="0px"
	 viewBox="0 0 813.4 277.7" style="enable-background:new 0 0 813.4 277.7;" xml:space="preserve">
<style type="text/css">
	.st0{fill-rule:evenodd;clip-rule:evenodd;fill:#EB7100;}
</style>
<g id="Layer_2_1_">
	<g id="Layer_1-2">
		<path class="st0" d="M730.7,277.7c47.9,0,82.7-34.7,82.7-82.5V59.7h-33.3l-2.5,11.5l-0.2,1.1l-0.9-0.7c-10-8.3-23-12.3-39.9-12.3
			c-42.1,0-76.4,35.3-76.4,78.8s34.3,78.8,76.4,78.8c10.5,0,20.8-2.2,30.3-6.5l1.4-0.6l-0.5,1.5c-5.3,15.7-19.6,25.9-37.2,26.4h-2.2
			c-10.2,0.3-20-3.4-27.6-10.1l-2-1.7l-24.4,27.8l1.8,1.7C691.8,270.7,715.4,277.7,730.7,277.7z M740.2,175.7
			c-19.5,0-35.4-16.9-35.4-37.7s15.9-37.7,35.4-37.7s35.4,16.9,35.4,37.7S759.7,175.8,740.2,175.7L740.2,175.7z"/>
		<path class="st0" d="M569.3,277.7c47.9,0,82.7-34.7,82.7-82.5V59.8h-33.2l-2.5,11.5l-0.2,1.1l-0.9-0.8c-10-8.3-23-12.3-39.8-12.3
			c-42.1,0-76.4,35.3-76.4,78.8s34.3,78.8,76.4,78.8c10.5,0,20.8-2.2,30.4-6.5l1.5-0.7l-0.5,1.6c-5.3,15.8-19.6,25.9-37.3,26.5h-2.2
			c-10.2,0.3-20.1-3.4-27.7-10.1l-2-1.7l-24.4,27.7l1.7,1.7C530.4,270.7,554,277.7,569.3,277.7z M578.8,175.8
			c-19.5,0-35.5-16.9-35.5-37.7s15.9-37.7,35.5-37.7s35.5,16.9,35.5,37.7S598.3,175.8,578.8,175.8L578.8,175.8z"/>
		<path class="st0" d="M157,162.2l-7.6,5c-31.2,20.6-73.2,12.1-93.9-19.1S43.4,74.8,74.6,54.2c22.7-15,52.1-15,74.8,0l7.6,5
			l19.7-33.7l-6.6-4.5C120.5-12.9,52.8-0.1,19,49.5S-2.2,166.8,47.4,200.6c18.1,12.3,39.4,18.9,61.3,18.9c21.9,0,43.3-6.6,61.4-19
			l6.6-4.5L157,162.2z"/>
		<path class="st0" d="M310.7,75.4c-11.7-10.8-28.6-16.9-50.3-15.2c-11.4,0.9-22.6,6.9-27,11.6V0l-44.9,7.8v209.4h44.9v-77.4
			c-0.9-30.9,10.8-38.3,28.2-38.3c17.1,0,26.6,11.5,26.6,36.3v79.4h43v-86.9C331.3,104.8,323.8,87.4,310.7,75.4"/>
		<path class="st0" d="M415.1,58.8c-42.2,0-75.3,35.5-75.3,80.8c0,44.5,35,80.8,78.1,80.8c40.2,0,61-29,64.6-34.6l-26.6-18.3
			c-9.8,10.7-21.9,15.2-38,14.4c-7.1-0.4-14-2.7-19.9-6.6c-6.1-4-10.5-9.9-12.6-16.9l-0.5-1.5H489c0.8-5.7,1.1-11.5,1.2-17.3
			C490.2,94.3,457.2,58.8,415.1,58.8z M380.9,127.7l0.1-1.3c0.8-9.3,5.1-18,12-24.4c6.3-5.9,14.5-9.2,23.1-9.2
			c16.6,0,34.9,11.8,36.1,33.7l0.1,1.2H380.9z"/>
	</g>
</g>
</svg>
